Patient4_TMGait_0pt4_02_right_02_GRF.mot
version=1
nRows=32
nColumns=19
inDegrees=no
endheader
time	F1x	F1y	F1z	M1x	M1y	M1z	F2x	F2y	F2z	M2x	M2y	M2z	EC1x	EC1y	EC1z	EC2x	EC2y	EC2z
1.9	-2.3482	768.772	64.4226	-254.3147	-71.9221	857.7989	-17.9587	-16.351	-3.1654	-1.7592	8.3028	-20.1114	-0.0592	0.0182	-0.0073	-0.0462	0.0165	0.9585
1.9136	-4.128	756.0067	65.9352	-250.1434	-72.7156	840.297	-12.3431	-10.3294	-2.1368	-0.92349	5.7286	-12.6763	-0.0592	0.0182	-0.0073	-0.0462	0.0165	0.9585
1.9271	-4.8147	742.9485	66.2696	-246.0071	-72.0322	821.8443	-7.567	-5.1623	-1.2723	-0.19754	3.5425	-6.3158	-0.0592	0.0182	-0.0073	-0.0462	0.0165	0.9585
1.9407	-4.2632	730.9909	65.4082	-242.397	-69.8579	804.068	-3.9188	-1.1713	-0.61794	0.37311	1.8753	-1.4112	-0.0592	0.0182	-0.0073	-0.0462	0.0165	0.9585
1.9543	-2.5524	721.3711	63.5685	-239.7312	-66.4482	788.4139	-1.3927	1.6396	-0.16664	0.78632	0.72137	2.0398	-0.0592	0.0182	-0.0073	-0.0462	0.0165	0.9585
1.9679	0.13606	715.0156	61.0804	-238.3057	-62.1825	775.969	0.15944	3.4158	0.10782	1.0584	0.015256	4.2236	-0.0592	0.0182	-0.0073	-0.0462	0.0165	0.9585
1.9814	3.5704	712.4596	58.3012	-238.2678	-57.4729	767.393	0.95168	4.3717	0.24802	1.2136	-0.34173	5.4109	-0.0592	0.0182	-0.0073	-0.0462	0.0165	0.9585
1.995	7.5222	713.8035	55.5223	-239.6095	-52.6653	762.8643	1.207	4.7263	0.28678	1.2737	-0.44214	5.8636	-0.0592	0.0182	-0.0073	-0.0462	0.0165	0.9585
2.0086	11.7809	718.7484	53.005	-242.1809	-48.0715	762.1301	1.1085	4.6408	0.25503	1.2472	-0.36685	5.7702	-0.0592	0.0182	-0.0073	-0.0462	0.0165	0.9585
2.0221	16.1735	726.6533	50.9066	-245.7151	-43.899	764.5751	0.79812	4.2145	0.17663	1.1315	-0.17826	5.2484	-0.0592	0.0182	-0.0073	-0.0462	0.0165	0.9585
2.0357	20.5513	736.6017	49.3551	-249.8566	-40.3169	769.3017	0.3855	3.4942	0.068735	0.91647	0.072263	4.3521	-0.0592	0.0182	-0.0073	-0.0462	0.0165	0.9585
2.0493	24.8174	747.5489	48.3921	-254.2188	-37.3991	775.2813	-0.042692	2.4739	-0.056226	0.58396	0.34331	3.0766	-0.0592	0.0182	-0.0073	-0.0462	0.0165	0.9585
2.0629	28.9112	758.4511	48.025	-258.4251	-35.172	781.4737	-0.41341	1.1161	-0.18144	0.11229	0.59106	1.3933	-0.0592	0.0182	-0.0073	-0.0462	0.0165	0.9585
2.0764	32.7938	768.3274	48.1879	-262.1278	-33.585	786.9068	-0.64874	-0.57852	-0.28086	-0.50398	0.75744	-0.68861	-0.0592	0.0182	-0.0073	-0.0462	0.0165	0.9585
2.09	36.4053	776.223	48.798	-264.9912	-32.5766	790.6597	-0.6397	-2.5249	-0.32935	-1.2355	0.77014	-3.0691	-0.0592	0.0182	-0.0073	-0.0462	0.0165	0.9585
2.1036	39.6495	781.2194	49.7748	-266.6903	-32.0975	791.8622	-0.25842	-4.5107	-0.28878	-1.9979	0.53313	-5.4917	-0.0592	0.0182	-0.0073	-0.0462	0.0165	0.9585
2.1171	42.4108	782.6374	51.0436	-266.9814	-32.1152	789.8986	0.64746	-6.1289	-0.11598	-2.6259	-0.062303	-7.4644	-0.0592	0.0182	-0.0073	-0.0462	0.0165	0.9585
2.1307	44.593	780.2617	52.5481	-265.7805	-32.6101	784.6114	2.2542	-6.6931	0.23525	-2.8418	-1.1375	-8.1614	-0.0592	0.0182	-0.0073	-0.0462	0.0165	0.9585
2.1443	46.1765	774.4053	54.2497	-263.1871	-33.5582	776.3506	4.7065	-5.1938	0.80671	-2.2381	-2.7974	-6.3677	-0.0592	0.0182	-0.0073	-0.0462	0.0165	0.9585
2.1579	47.1905	765.7466	56.1114	-259.4354	-34.919	765.8088	8.061	-0.28282	1.6344	-0.27114	-5.104	-0.46184	-0.0592	0.0182	-0.0073	-0.0462	0.0165	0.9585
2.1714	47.7262	755.074	58.0558	-254.8099	-36.5974	753.7662	12.2019	9.6856	2.7197	3.7162	-8.0068	11.5419	-0.0592	0.0182	-0.0073	-0.0462	0.0165	0.9585
2.185	47.8893	742.9162	59.9409	-249.5246	-38.427	740.7292	16.7134	26.4455	4.0038	10.4131	-11.2616	31.7349	-0.0592	0.0182	-0.0073	-0.0462	0.0165	0.9585
2.1986	47.7668	729.2192	61.5503	-243.6134	-40.1679	726.6211	20.7188	51.4266	5.3175	20.3878	-14.3131	61.8425	-0.0592	0.0182	-0.0073	-0.0462	0.0165	0.9585
2.2121	47.3937	713.2504	62.5748	-236.8973	-41.5021	710.6887	22.7438	85.1678	6.3335	33.8499	-16.1839	102.5134	-0.0592	0.0182	-0.0073	-0.0462	0.0165	0.9585
2.2257	46.7461	693.7989	62.6728	-229.046	-42.097	691.6917	20.9683	126.732	6.5135	50.4069	-15.5221	152.6472	-0.0592	0.0182	-0.0073	-0.0462	0.0165	0.9585
2.2393	45.7904	669.6401	61.5229	-219.7309	-41.6421	668.349	14.6922	173.9083	5.2932	69.1127	-11.364	209.6899	-0.0592	0.0182	-0.0073	-0.0462	0.0165	0.9585
2.2529	44.509	640.0033	58.9611	-208.7754	-39.9683	639.7948	5.0409	223.0702	2.3402	88.4743	-3.8134	269.2932	-0.0592	0.0182	-0.0073	-0.0462	0.0165	0.9585
2.2664	42.9616	604.7972	55.0452	-196.2207	-37.0956	605.7919	-5.6774	270.5215	-2.0678	107.0127	5.86	326.8219	-0.0592	0.0182	-0.0073	-0.0462	0.0165	0.9585
2.28	41.2227	564.5161	50.0371	-182.2797	-33.2267	566.6732	-15.8384	314.2135	-7.4412	123.9229	16.4006	379.6699	-0.0592	0.0182	-0.0073	-0.0462	0.0165	0.9585
2.2936	39.3098	519.9345	44.2906	-167.2279	-28.6761	523.0831	-24.5906	353.7694	-13.0359	139.0997	26.6118	427.3161	-0.0592	0.0182	-0.0073	-0.0462	0.0165	0.9585
2.3071	37.1234	471.8566	38.174	-151.3169	-23.8145	475.7681	-31.6077	389.5333	-18.3717	152.7445	35.7781	470.1647	-0.0592	0.0182	-0.0073	-0.0462	0.0165	0.9585
2.3207	34.5032	421.251	31.9989	-134.8187	-18.9828	425.6985	-36.8342	422.4101	-23.0074	165.2843	43.3745	509.2462	-0.0592	0.0182	-0.0073	-0.0462	0.0165	0.9585
